<svg width="512" height="512" viewBox="0 0 512 512" fill="none" xmlns="http://www.w3.org/2000/svg">
<rect width="512" height="512" fill="#050034"/>
<path d="M265.727 64.118L265.766 64.0973L265.805 64.078L270.568 61.7552L270.967 61.5606L271.408 61.5153C272.052 61.4492 272.621 61.62 272.864 61.6962C273.195 61.8003 273.541 61.9419 273.876 62.0931C274.551 62.3983 275.377 62.8322 276.306 63.3539C278.173 64.4032 280.625 65.9055 283.443 67.7047C289.089 71.3087 296.315 76.1768 303.497 81.1759C310.679 86.1753 317.84 91.323 323.355 95.4888C326.109 97.5693 328.474 99.4217 330.232 100.897C331.109 101.632 331.861 102.296 332.445 102.861C332.941 103.342 333.555 103.974 333.904 104.619C334.95 106.521 335.699 108.575 335.439 110.895C335.181 113.195 333.982 115.321 332.088 117.508C328.383 121.787 321.077 127.325 308.836 136.054L308.828 136.06L308.821 136.065C293.986 146.483 285.208 152.44 279.509 155.454C276.656 156.964 274.354 157.859 272.307 158.126C270.122 158.412 268.396 157.964 266.796 157.156L266.783 157.15L266.771 157.144C263.9 155.656 261.637 154.153 260.459 150.794C259.439 147.882 259.298 143.67 259.298 137.171V127.567L247.177 128.383C247.174 128.383 247.172 128.383 247.169 128.383C201.154 131.65 163.23 153.156 136.444 191.365C92.3745 254.38 110.541 344.047 176.413 386.937L176.418 386.94C201.342 403.257 225.362 410.261 255.858 410.424L255.866 410.424C294.211 410.751 326.775 398.524 354.366 373.894C374.246 356.133 386.94 336.122 395.66 308.312L395.663 308.305L395.665 308.298C398.636 299.025 401.111 292.716 404.006 288.536C405.487 286.399 407.115 284.757 409.027 283.546C410.937 282.337 413.012 281.632 415.286 281.216L415.295 281.214L415.305 281.213C422.808 279.899 429.414 282.539 433.634 287.665C437.823 292.755 439.498 300.081 437.737 307.947L437.736 307.95C428.074 350.863 400.672 391.718 364.946 416.634C349.748 427.247 320.726 440.656 304.07 444.719C261.52 455.303 217.052 451.276 178.249 433.277C114.65 403.855 75.4637 345.787 72.704 276.807C71.3269 242.885 76.8527 216.906 91.5151 188.134L91.5165 188.131C122.232 128.042 181.07 91.5852 253.144 87.7213C253.149 87.7211 253.154 87.7208 253.16 87.7205L258.631 87.3646L259.305 79.0806C259.305 79.0776 259.306 79.0746 259.306 79.0716C259.64 74.5956 259.989 71.4668 260.874 69.2086C261.89 66.6147 263.546 65.2783 265.727 64.118Z" fill="white" stroke="white" stroke-width="5"/>
<path d="M233.993 192.283C220.534 195.819 207.393 203.197 196.309 213.343C178.101 229.791 166.701 258.382 169.392 280.672C173.034 311.877 190.926 337.087 218.318 349.692C239.693 359.684 255.368 361.375 277.218 355.994C323.135 344.619 352.111 297.735 340.394 253.925C336.594 240.09 327.252 224.103 317.119 214.419C306.035 203.812 297.802 199.047 282.127 193.82C268.193 189.362 247.926 188.748 233.993 192.283ZM264.7 214.111C267.019 216.362 266.934 226.752 266.821 240.48C266.795 243.627 266.768 246.949 266.768 250.389V270.68C266.768 271.9 279.925 284.9 279.925 284.9C297.951 303.79 297.559 304.438 294.365 309.716C294.067 310.208 293.744 310.741 293.41 311.333C292.784 311.749 292.205 312.169 291.653 312.57C286.454 316.346 283.576 318.437 264.7 299.633L244.69 280.672V253.925C244.69 250.688 244.678 247.554 244.667 244.561C244.607 228.503 244.562 216.492 246.43 214.419C252.816 207.333 261.22 209.5 264.7 214.111Z" fill="white"/>
<path d="M233.993 192.283C220.534 195.819 207.393 203.197 196.309 213.343C178.101 229.791 166.701 258.382 169.392 280.672C173.034 311.877 190.926 337.087 218.318 349.692C239.693 359.684 255.368 361.375 277.218 355.994C323.135 344.619 352.111 297.735 340.394 253.925C336.594 240.09 327.252 224.103 317.119 214.419C306.035 203.812 297.802 199.047 282.127 193.82C268.193 189.362 247.926 188.748 233.993 192.283ZM264.7 214.111C267.019 216.362 266.934 226.752 266.821 240.48C266.795 243.627 266.768 246.949 266.768 250.389V270.68C266.768 271.9 279.925 284.9 279.925 284.9C297.951 303.79 297.559 304.438 294.365 309.716C294.067 310.208 293.744 310.741 293.41 311.333C292.784 311.749 292.205 312.169 291.653 312.57C286.454 316.346 283.576 318.437 264.7 299.633L244.69 280.672V253.925C244.69 250.688 244.678 247.554 244.667 244.561C244.607 228.503 244.562 216.492 246.43 214.419C252.816 207.333 261.22 209.5 264.7 214.111Z" stroke="white"/>
<circle cx="403" cy="187" r="20" fill="white"/>
<circle cx="423" cy="243" r="20" fill="white"/>
<circle cx="367" cy="138" r="20" fill="white"/>
</svg>
