<svg width="512" height="512" viewBox="0 0 512 512" fill="none" xmlns="http://www.w3.org/2000/svg">
<rect width="512" height="512" fill="#050034"/>
<path d="M265.727 64.118L265.766 64.0973L265.805 64.078L270.568 61.7552L270.967 61.5606L271.408 61.5153C272.052 61.4492 272.621 61.62 272.864 61.6962C273.195 61.8003 273.541 61.9419 273.876 62.0931C274.551 62.3983 275.377 62.8322 276.306 63.3539C278.173 64.4032 280.625 65.9055 283.443 67.7047C289.089 71.3087 296.315 76.1768 303.497 81.1759C310.679 86.1753 317.84 91.323 323.355 95.4888C326.109 97.5693 328.474 99.4217 330.232 100.897C331.109 101.632 331.861 102.296 332.445 102.861C332.941 103.342 333.555 103.974 333.904 104.619C334.95 106.521 335.699 108.575 335.439 110.895C335.181 113.195 333.982 115.321 332.088 117.508C328.383 121.787 321.077 127.325 308.836 136.054L308.828 136.06L308.821 136.065C293.986 146.483 285.208 152.44 279.509 155.454C276.656 156.964 274.354 157.859 272.307 158.126C270.122 158.412 268.396 157.964 266.796 157.156L266.783 157.15L266.771 157.144C263.9 155.656 261.637 154.153 260.459 150.794C259.439 147.882 259.298 143.67 259.298 137.171V127.567L247.177 128.383C247.174 128.383 247.172 128.383 247.169 128.383C201.154 131.65 163.23 153.156 136.444 191.365C92.3745 254.38 110.541 344.047 176.413 386.937L176.418 386.94C201.342 403.257 225.362 410.261 255.858 410.424L255.866 410.424C294.211 410.751 326.775 398.524 354.366 373.894C374.246 356.133 386.94 336.122 395.66 308.312L395.663 308.305L395.665 308.298C398.636 299.025 401.111 292.716 404.006 288.536C405.487 286.399 407.115 284.757 409.027 283.546C410.937 282.337 413.012 281.632 415.286 281.216L415.295 281.214L415.305 281.213C422.808 279.899 429.414 282.539 433.634 287.665C437.823 292.755 439.498 300.081 437.737 307.947L437.736 307.95C428.074 350.863 400.672 391.718 364.946 416.634C349.748 427.247 320.726 440.656 304.07 444.719C261.52 455.303 217.052 451.276 178.249 433.277C114.65 403.855 75.4637 345.787 72.704 276.807C71.3269 242.885 76.8527 216.906 91.5151 188.134L91.5165 188.131C122.232 128.042 181.07 91.5852 253.144 87.7213C253.149 87.7211 253.154 87.7208 253.16 87.7205L258.631 87.3646L259.305 79.0806C259.305 79.0776 259.306 79.0746 259.306 79.0716C259.64 74.5956 259.989 71.4668 260.874 69.2086C261.89 66.6147 263.546 65.2783 265.727 64.118Z" fill="white" stroke="white" stroke-width="5"/>
<path d="M230.704 179.634C215.235 183.714 200.129 192.228 187.39 203.934C166.46 222.912 153.357 255.903 156.451 281.621C160.637 317.627 181.202 346.716 212.687 361.26C237.256 372.789 255.274 374.74 280.389 368.532C333.167 355.407 366.472 301.309 353.005 250.759C348.637 234.796 337.899 216.35 326.251 205.175C313.512 192.937 304.048 187.439 286.031 181.408C270.015 176.264 246.72 175.555 230.704 179.634ZM266 204.821C268.665 207.418 268.567 219.406 268.438 235.246C268.409 238.877 268.377 242.71 268.377 246.68V270.092C268.377 271.5 283.5 286.5 283.5 286.5C304.219 308.297 303.769 309.044 300.098 315.133C299.755 315.702 299.384 316.317 299 317C298.28 317.48 297.615 317.965 296.981 318.427C291.005 322.784 287.696 325.196 266 303.5L243 281.621L243 250.759C243 247.025 242.986 243.409 242.974 239.955C242.904 221.426 242.852 207.567 245 205.175C252.34 197 262 199.5 266 204.821Z" fill="white"/>
<path d="M230.704 179.634C215.235 183.714 200.129 192.228 187.39 203.934C166.46 222.912 153.357 255.903 156.451 281.621C160.637 317.627 181.202 346.716 212.687 361.26C237.256 372.789 255.274 374.74 280.389 368.532C333.167 355.407 366.472 301.309 353.005 250.759C348.637 234.796 337.899 216.35 326.251 205.175C313.512 192.937 304.048 187.439 286.031 181.408C270.015 176.264 246.72 175.555 230.704 179.634ZM266 204.821C268.665 207.418 268.567 219.406 268.438 235.246C268.409 238.877 268.377 242.71 268.377 246.68V270.092C268.377 271.5 283.5 286.5 283.5 286.5C304.219 308.297 303.769 309.044 300.098 315.133C299.755 315.702 299.384 316.317 299 317C298.28 317.48 297.615 317.965 296.981 318.427C291.005 322.784 287.696 325.196 266 303.5L243 281.621L243 250.759C243 247.025 242.986 243.409 242.974 239.955C242.904 221.426 242.852 207.567 245 205.175C252.34 197 262 199.5 266 204.821Z" stroke="white"/>
<circle cx="403" cy="187" r="20" fill="white"/>
<circle cx="423" cy="243" r="20" fill="white"/>
<circle cx="367" cy="138" r="20" fill="white"/>
</svg>
